# xmcd CD database file
#
# Track frame offsets:
#	150
#	12018
#	23285
#	31547
#	47005
#	52495
#	72954
#	81749
#	91559
#	107989
#	117643
#	128963
#	139059
#	146193
#	162604
#	175114
#
# Disc length: 2392 seconds
#
# Revision: 0
# Processed by: cddbd v1.5.1PL2 Copyright (c) Steve Scherf et al.
# Submitted via: CDex 1.50
#
DISCID=df095610
DTITLE=Michel Legran - Michel Legran and His Orchestra
DYEAR=2000
DGENRE=Jazz
TTITLE0=I Love Paris
TTITLE1=Mademoiselle De Paris
TTITLE2=Paris
TTITLE3=Autumn Leaves
TTITLE4=Under The Bridges Of Paris
TTITLE5=La Siene
TTITLE6=Paris In The Spring
TTITLE7=Paris Canaille
TTITLE8=April In Paris
TTITLE9=A paris
TTITLE10=La Vie En Rose
TTITLE11=Under Paris Skies
TTITLE12=Paris, J'e T'Aime
TTITLE13=The Song From Moulin Rouge
TTITLE14=The Last Time I Saw Paris
TTITLE15=I Love Paris (Reprise)
EXTD=YEAR: 2000
EXTT0=
EXTT1=
EXTT2=
EXTT3=
EXTT4=
EXTT5=
EXTT6=
EXTT7=
EXTT8=
EXTT9=
EXTT10=
EXTT11=
EXTT12=
EXTT13=
EXTT14=
EXTT15=
PLAYORDER=
